<svg width="28" height="28" viewBox="0 0 28 28" fill="none" xmlns="http://www.w3.org/2000/svg">
<g clip-path="url(#clip0_21_451)">
<path d="M9.66406 16.5827C9.66406 17.4254 9.83005 18.2599 10.1525 19.0385C10.475 19.817 10.9477 20.5245 11.5436 21.1204C12.1395 21.7162 12.8469 22.1889 13.6255 22.5114C14.4041 22.8339 15.2385 22.9999 16.0812 22.9999C16.924 22.9999 17.7584 22.8339 18.537 22.5114C19.3156 22.1889 20.023 21.7162 20.6189 21.1204C21.2148 20.5245 21.6875 19.817 22.01 19.0385C22.3325 18.2599 22.4984 17.4254 22.4984 16.5827C22.4984 14.8808 21.8223 13.2485 20.6189 12.0451C19.4154 10.8416 17.7832 10.1655 16.0812 10.1655C14.3793 10.1655 12.7471 10.8416 11.5436 12.0451C10.3402 13.2485 9.66406 14.8808 9.66406 16.5827Z" fill="#FDA289"/>
<path d="M14 24.5C8.21094 24.5 3.5 19.7891 3.5 14C3.5 8.21094 8.21094 3.5 14 3.5C19.7891 3.5 24.5 8.21094 24.5 14C24.5 19.7891 19.7891 24.5 14 24.5ZM14 4.50078C8.76172 4.50078 4.50078 8.76172 4.50078 14C4.50078 19.2383 8.76172 23.4992 14 23.4992C19.2383 23.4992 23.4992 19.2383 23.4992 14C23.4992 8.76172 19.2383 4.50078 14 4.50078Z" fill="#111111"/>
<path d="M14 18.5399C13.8711 18.5399 13.7445 18.4907 13.6461 18.3923L9.88672 14.6329C9.28906 14.0376 8.96094 13.2454 8.96094 12.4016C8.96094 11.5579 9.28906 10.7634 9.88672 10.168C11.0445 9.00789 12.7812 9.39696 14 10.386C15.2188 9.39696 16.9555 9.01024 18.1133 10.168C19.3438 11.4009 19.3438 13.4048 18.1133 14.6352L14.3539 18.3946C14.2555 18.4907 14.1289 18.5399 14 18.5399ZM11.6305 10.4634C11.2414 10.4634 10.8781 10.5876 10.5922 10.8735C10.1844 11.2813 9.95938 11.8227 9.95938 12.3993C9.95938 12.9759 10.1844 13.5173 10.5922 13.9251L14 17.3329L17.4078 13.9251C18.2492 13.0837 18.2492 11.7126 17.4078 10.8712C16.6203 10.0837 15.2375 10.5266 14.3539 11.4079C14.1594 11.6024 13.843 11.6024 13.6461 11.4079C13.0836 10.8477 12.3172 10.4634 11.6305 10.4634Z" fill="#111111"/>
</g>
<defs>
<clipPath id="clip0_21_451">
<rect width="28" height="28" fill="white"/>
</clipPath>
</defs>
</svg>
