<svg width="28" height="28" viewBox="0 0 28 28" fill="none" xmlns="http://www.w3.org/2000/svg">
<g clip-path="url(#clip0_21_479)">
<path d="M11.9192 9.46636C11.9192 9.98918 12.0222 10.5069 12.2222 10.9899C12.4223 11.4729 12.7156 11.9118 13.0853 12.2815C13.455 12.6512 13.8939 12.9445 14.3769 13.1446C14.8599 13.3446 15.3776 13.4476 15.9004 13.4476C16.4233 13.4476 16.941 13.3446 17.424 13.1446C17.907 12.9445 18.3459 12.6512 18.7156 12.2815C19.0853 11.9118 19.3786 11.4729 19.5786 10.9899C19.7787 10.5069 19.8817 9.98918 19.8817 9.46636C19.8817 8.41046 19.4622 7.39782 18.7156 6.65119C17.969 5.90456 16.9563 5.48511 15.9004 5.48511C14.8445 5.48511 13.8319 5.90456 13.0853 6.65119C12.3386 7.39782 11.9192 8.41046 11.9192 9.46636Z" fill="#FDA289"/>
<path d="M19.8816 25.0878C19.559 25.0878 19.2992 24.828 19.2992 24.5054V15.6132C19.2992 15.2905 19.559 15.0308 19.8816 15.0308C20.2043 15.0308 20.464 15.2905 20.464 15.6132V24.5054C20.464 24.828 20.2043 25.0878 19.8816 25.0878Z" fill="#111111"/>
<path d="M24.325 20.6418H15.4355C15.1129 20.6418 14.8531 20.382 14.8531 20.0594C14.8531 19.7367 15.1129 19.477 15.4355 19.477H24.3277C24.6504 19.477 24.9101 19.7367 24.9101 20.0594C24.9101 20.382 24.6476 20.6418 24.325 20.6418ZM14.3254 14.0301C10.9402 14.0301 8.18396 11.2738 8.18396 7.88867C8.18396 4.50352 10.9375 1.75 14.3254 1.75C17.7133 1.75 20.464 4.50352 20.464 7.88867C20.464 11.2738 17.7105 14.0301 14.3254 14.0301ZM14.3254 2.91758C11.5828 2.91758 9.35154 5.14883 9.35154 7.89141C9.35154 10.634 11.5828 12.8652 14.3254 12.8652C17.0679 12.8652 19.2992 10.634 19.2992 7.89141C19.2992 5.14883 17.0652 2.91758 14.3254 2.91758Z" fill="#111111"/>
<path d="M3.72964 26.2499C3.43159 26.2499 3.18003 26.0257 3.14995 25.7222C3.11167 25.3284 3.09253 24.9347 3.09253 24.5573C3.09253 18.1069 8.3398 12.8597 14.7902 12.8597C15.1128 12.8597 15.3726 13.1194 15.3726 13.4421C15.3726 13.7647 15.1128 14.0245 14.7902 14.0245C8.98511 14.0245 4.26011 18.7468 4.26011 24.5546C4.26011 24.8937 4.27651 25.2464 4.31206 25.6046C4.34487 25.9245 4.10972 26.2116 3.7898 26.2417C3.76792 26.2499 3.74878 26.2499 3.72964 26.2499ZM12.9609 9.04248H11.2929C11.271 9.04248 11.2519 9.02334 11.2519 9.00147V5.5835C11.2519 5.56162 11.271 5.54248 11.2929 5.54248H12.9609C12.9828 5.54248 13.0019 5.56162 13.0019 5.5835V9.00147C13.0019 9.02334 12.9855 9.04248 12.9609 9.04248ZM17.046 9.04248H15.3781C15.3562 9.04248 15.3371 9.02334 15.3371 9.00147V5.5835C15.3371 5.56162 15.3562 5.54248 15.3781 5.54248H17.046C17.0679 5.54248 17.0871 5.56162 17.0871 5.5835V9.00147C17.0871 9.02334 17.0679 9.04248 17.046 9.04248Z" fill="#111111"/>
</g>
<defs>
<clipPath id="clip0_21_479">
<rect width="28" height="28" rx="14" fill="white"/>
</clipPath>
</defs>
</svg>
