<svg width="14" height="14" viewBox="0 0 14 14" fill="none" xmlns="http://www.w3.org/2000/svg">
<path d="M10.4055 9.77958C10.2652 9.77958 10.1306 9.72382 10.0313 9.62458C9.93208 9.52534 9.87632 9.39073 9.87632 9.25038C9.87632 9.11003 9.93208 8.97542 10.0313 8.87618C10.1306 8.77693 10.2652 8.72118 10.4055 8.72118C10.5412 8.72118 10.6714 8.66727 10.7674 8.5713C10.8633 8.47534 10.9172 8.34519 10.9172 8.20948V3.62308C10.9172 3.48737 10.8633 3.35721 10.7674 3.26125C10.6714 3.16529 10.5412 3.11138 10.4055 3.11138H5.81912C5.68341 3.11138 5.55326 3.16529 5.4573 3.26125C5.36133 3.35721 5.30742 3.48737 5.30742 3.62308C5.30742 3.76343 5.25167 3.89804 5.15242 3.99728C5.05318 4.09652 4.91858 4.15228 4.77822 4.15228C4.63787 4.15228 4.50327 4.09652 4.40402 3.99728C4.30478 3.89804 4.24902 3.76343 4.24902 3.62308C4.24995 3.20695 4.41567 2.80812 4.70992 2.51387C5.00417 2.21962 5.40299 2.0539 5.81912 2.05298H10.4055C10.8217 2.0539 11.2205 2.21962 11.5147 2.51387C11.809 2.80812 11.9747 3.20695 11.9756 3.62308V8.20948C11.9747 8.62561 11.809 9.02444 11.5147 9.31869C11.2205 9.61294 10.8217 9.77865 10.4055 9.77958Z" fill="white"/>
<path d="M8.0591 12.0735H3.6666C3.44875 12.0738 3.23299 12.0311 3.03167 11.9478C2.83035 11.8646 2.64743 11.7424 2.49339 11.5884C2.33935 11.4344 2.21721 11.2514 2.13397 11.0501C2.05073 10.8488 2.00803 10.633 2.0083 10.4152V6.00519C2.00793 5.78729 2.05057 5.57145 2.13377 5.37005C2.21697 5.16865 2.33909 4.98565 2.49314 4.83153C2.64719 4.67741 2.83015 4.55521 3.03151 4.47193C3.23287 4.38864 3.4487 4.34592 3.6666 4.34619H8.0591C8.27695 4.34592 8.49271 4.38862 8.69403 4.47186C8.89535 4.5551 9.07827 4.67724 9.23231 4.83128C9.38636 4.98532 9.5085 5.16824 9.59174 5.36956C9.67497 5.57088 9.71768 5.78664 9.7174 6.00449V10.4145C9.7349 11.3322 8.9768 12.0735 8.0591 12.0735ZM3.6666 5.40459C3.58764 5.40394 3.50934 5.41901 3.43626 5.44893C3.36318 5.47884 3.29679 5.52301 3.24095 5.57884C3.18512 5.63468 3.14095 5.70107 3.11104 5.77415C3.08112 5.84723 3.06605 5.92553 3.0667 6.00449V10.4145C3.06605 10.4935 3.08112 10.5718 3.11104 10.6448C3.14095 10.7179 3.18512 10.7843 3.24095 10.8401C3.29679 10.896 3.36318 10.9401 3.43626 10.9701C3.50934 11 3.58764 11.015 3.6666 11.0144H8.0591C8.13806 11.015 8.21637 11 8.28944 10.9701C8.36252 10.9401 8.42892 10.896 8.48475 10.8401C8.54059 10.7843 8.58475 10.7179 8.61467 10.6448C8.64459 10.5718 8.65966 10.4935 8.659 10.4145V6.00449C8.65966 5.92553 8.64459 5.84723 8.61467 5.77415C8.58475 5.70107 8.54059 5.63468 8.48475 5.57884C8.42892 5.52301 8.36252 5.47884 8.28944 5.44893C8.21637 5.41901 8.13806 5.40394 8.0591 5.40459H3.6666Z" fill="white"/>
</svg>
