<svg width="28" height="28" viewBox="0 0 28 28" fill="none" xmlns="http://www.w3.org/2000/svg">
<path d="M23.5485 10.9461C23.4172 11.0516 23.2766 11.1477 23.1172 11.2227C22.004 11.7547 20.6821 11.2602 20.1641 10.1211C19.8032 9.32661 19.9344 8.43599 20.4172 7.78442C20.1805 7.70942 19.9391 7.6438 19.6954 7.58755C19.7188 7.75395 19.7258 7.92505 19.7118 8.09849C19.604 9.35239 18.5258 10.2805 17.3047 10.1704C16.0813 10.0602 15.1766 8.9563 15.2844 7.70239C15.2868 7.66255 15.3008 7.62505 15.3055 7.58521C13.2899 8.04692 11.511 9.13442 10.1586 10.6368C10.3086 10.7 10.454 10.7774 10.5946 10.8758C11.6 11.5977 11.8438 13.018 11.1407 14.0493C10.4375 15.0805 9.05005 15.3313 8.04692 14.6094C8.01177 14.5836 7.98599 14.5532 7.95317 14.5274C7.67895 15.4274 7.52895 16.3836 7.50786 17.3727C7.63442 17.525 7.74927 17.6891 7.83599 17.8813C8.1477 18.5657 8.09145 19.3227 7.76567 19.9368C7.54536 20.3469 7.20786 20.6961 6.76255 20.9094C6.72974 20.9258 6.69458 20.9329 6.65942 20.9469C7.84771 22.2665 9.36411 23.2649 11.0821 23.804C11.3188 23.879 11.5602 23.9446 11.804 24.0008C11.7805 23.8344 11.7735 23.6633 11.7875 23.4899C11.8954 22.236 12.9735 21.3079 14.1946 21.418C15.418 21.5282 16.3227 22.6321 16.2149 23.886C16.2125 23.9258 16.1985 23.9633 16.1938 24.0032C18.2094 23.5415 19.9883 22.454 21.3407 20.9516C21.1907 20.8883 21.0454 20.811 20.9071 20.7125C19.9016 19.9907 19.6579 18.5704 20.361 17.5391C21.0641 16.5079 22.4516 16.2571 23.4571 16.979C23.4922 17.0047 23.518 17.0352 23.5508 17.061C23.8438 16.0954 24.0032 15.0688 24.0032 14.0024C24.0008 12.936 23.8415 11.9118 23.5485 10.9461Z" fill="#FDA289"/>
<path d="M16.1914 24.4999C16.0672 24.4999 15.9477 24.453 15.8539 24.3686C15.732 24.2561 15.6734 24.0944 15.6969 23.9327C15.7016 23.8999 15.7086 23.8671 15.7156 23.8366C15.8 22.864 15.0969 21.9991 14.15 21.9147C13.7023 21.8749 13.2641 22.0132 12.9148 22.3061C12.5492 22.6132 12.3266 23.0468 12.2844 23.5319C12.275 23.6538 12.2773 23.7874 12.2984 23.935C12.3195 24.0991 12.2609 24.2608 12.1391 24.371C12.0172 24.4835 11.8484 24.5257 11.6891 24.4882C9.6125 24.0077 7.74219 22.8991 6.28672 21.2796C6.17891 21.16 6.13437 20.9936 6.16953 20.8366C6.20469 20.6796 6.31484 20.5483 6.4625 20.485C6.47656 20.478 6.53984 20.4569 6.55391 20.4522C7.40938 20.0444 7.78438 18.9804 7.37891 18.0874C7.18203 17.6515 6.83047 17.3257 6.39219 17.1663C5.96562 17.0116 5.50625 17.035 5.09609 17.2296C4.98828 17.2811 4.88047 17.3515 4.76328 17.4452C4.63438 17.5483 4.46094 17.5835 4.30391 17.5343C4.14453 17.485 4.02031 17.3608 3.97344 17.2015C3.65937 16.1655 3.5 15.0897 3.5 13.9999C3.5 12.9077 3.65937 11.8296 3.97344 10.796C4.02266 10.6366 4.14688 10.5124 4.30391 10.4632C4.46328 10.414 4.63437 10.4468 4.76562 10.5522C4.79141 10.5733 4.8125 10.5944 4.83594 10.6155C5.20859 10.885 5.65859 10.9882 6.10859 10.9108C6.56328 10.8311 6.96172 10.571 7.22656 10.1819C7.77734 9.37567 7.5875 8.26005 6.80234 7.6952C6.70391 7.62489 6.59375 7.56395 6.46484 7.51005C6.31484 7.44677 6.20703 7.31552 6.17188 7.15848C6.13672 7.00145 6.17891 6.83505 6.28906 6.71552C7.74687 5.09598 9.61719 3.98973 11.6961 3.51161C11.8578 3.47645 12.0242 3.51864 12.1437 3.6288C12.2656 3.73895 12.3242 3.90302 12.3031 4.06473C12.2984 4.09755 12.2914 4.12802 12.2844 4.15848C12.2 5.13348 12.9031 6.00067 13.85 6.08505C14.2977 6.12489 14.7359 5.98661 15.0852 5.69364C15.4508 5.38661 15.6734 4.95302 15.7156 4.46786C15.725 4.34364 15.7227 4.21239 15.7016 4.06473C15.6805 3.90302 15.7391 3.73895 15.8609 3.6288C15.9828 3.51864 16.1516 3.47645 16.3109 3.51161C18.3898 3.99208 20.2578 5.10067 21.7133 6.7202C21.8211 6.83973 21.8656 7.0038 21.8305 7.16317C21.7953 7.32255 21.6875 7.45145 21.5398 7.51473C21.5094 7.5288 21.4766 7.53817 21.4461 7.54989C20.5906 7.9577 20.2156 9.02177 20.6211 9.91473C20.818 10.3507 21.1695 10.6765 21.6078 10.8358C22.0344 10.9905 22.4938 10.9671 22.9039 10.7725C23.0117 10.721 23.1219 10.6507 23.2367 10.5569C23.3656 10.4538 23.5391 10.4186 23.6961 10.4679C23.8555 10.5171 23.9797 10.6413 24.0266 10.8007C24.3406 11.8343 24.5 12.91 24.5 13.9999C24.5 15.0921 24.3406 16.1702 24.0266 17.2038C23.9773 17.3632 23.8531 17.4874 23.6961 17.5366C23.5367 17.5835 23.3656 17.553 23.2344 17.4475C23.2086 17.4265 23.1875 17.4054 23.1641 17.3843C22.7914 17.1147 22.3391 17.0116 21.8914 17.089C21.4367 17.1686 21.0406 17.4288 20.7734 17.8179C20.2227 18.6265 20.4125 19.7397 21.1977 20.3046C21.2937 20.3749 21.4062 20.4358 21.5352 20.4897C21.6852 20.553 21.7953 20.6843 21.8305 20.8413C21.8656 21.0007 21.8234 21.1647 21.7133 21.2843C20.2555 22.9038 18.3852 24.0124 16.3063 24.4882C16.2664 24.4952 16.2289 24.4999 16.1914 24.4999ZM7.46094 21.0616C8.55312 22.1304 9.86094 22.9108 11.2977 23.3468C11.382 22.6343 11.7266 21.9968 12.2703 21.5374C12.8234 21.0733 13.5289 20.853 14.2367 20.9163C15.5375 21.0335 16.5477 22.0718 16.7 23.3468C18.1367 22.9108 19.4445 22.1304 20.5367 21.0616C19.3766 20.1686 19.107 18.4811 19.9437 17.2554C20.3633 16.6413 20.9914 16.2335 21.7133 16.1069C22.2359 16.0155 22.7609 16.0788 23.2367 16.285C23.4102 15.5397 23.4992 14.7757 23.4992 14.0022C23.4992 13.2288 23.4102 12.4647 23.2367 11.7194C22.6062 11.9913 21.9102 12.0124 21.2633 11.7757C20.5695 11.5225 20.0187 11.0093 19.707 10.3272C19.1586 9.1202 19.5359 7.71161 20.5367 6.93817C19.4445 5.86942 18.1367 5.08895 16.7 4.65302C16.6156 5.36552 16.2711 6.00302 15.7273 6.46239C15.1742 6.92645 14.4781 7.14911 13.7609 7.08348C12.4602 6.9663 11.45 5.92802 11.2977 4.65302C9.86094 5.08895 8.55312 5.86942 7.46094 6.93817C8.62109 7.83114 8.89062 9.51864 8.05391 10.7444C7.63437 11.3585 7.00625 11.7663 6.28438 11.8929C5.76172 11.9843 5.23672 11.921 4.76094 11.7147C4.5875 12.46 4.49844 13.2241 4.49844 13.9975C4.49844 14.771 4.5875 15.535 4.76094 16.2804C5.39141 16.0085 6.0875 15.9874 6.73438 16.2218C7.42812 16.4749 7.97891 16.9882 8.29062 17.6702C8.83906 18.8796 8.46172 20.2882 7.46094 21.0616Z" fill="#111111"/>
<path d="M14 17.3493C12.1929 17.3493 10.7211 15.847 10.7211 14.0001C10.7211 12.1532 12.1906 10.6509 14 10.6509C15.8094 10.6509 17.2789 12.1532 17.2789 14.0001C17.2789 15.847 15.807 17.3493 14 17.3493ZM14 11.6517C12.7437 11.6517 11.7219 12.704 11.7219 14.0001C11.7219 15.2962 12.7437 16.3485 14 16.3485C15.2562 16.3485 16.2781 15.2938 16.2781 14.0001C16.2781 12.7063 15.2562 11.6517 14 11.6517Z" fill="#111111"/>
</svg>
