<svg width="16" height="16" viewBox="0 0 16 16" fill="none" xmlns="http://www.w3.org/2000/svg">
<path d="M10.3709 7.68818C10.4117 7.72904 10.4442 7.77755 10.4663 7.83093C10.4884 7.88431 10.4998 7.94153 10.4998 7.99931C10.4998 8.05709 10.4884 8.11431 10.4663 8.16769C10.4442 8.22107 10.4117 8.26958 10.3709 8.31044L6.84478 11.8365C6.80392 11.8774 6.75541 11.9098 6.70203 11.9319C6.64865 11.954 6.59143 11.9654 6.53365 11.9654C6.47587 11.9654 6.41865 11.954 6.36527 11.9319C6.31189 11.9098 6.26338 11.8774 6.22252 11.8365C6.18167 11.7957 6.14926 11.7472 6.12714 11.6938C6.10503 11.6404 6.09365 11.5832 6.09365 11.5254C6.09365 11.4676 6.10503 11.4104 6.12714 11.357C6.14926 11.3037 6.18167 11.2551 6.22252 11.2143L9.43785 7.99896L6.22252 4.78433C6.14001 4.70181 6.09365 4.5899 6.09365 4.4732C6.09365 4.35651 6.14001 4.24459 6.22252 4.16208C6.30504 4.07956 6.41696 4.0332 6.53365 4.0332C6.65035 4.0332 6.76226 4.07956 6.84478 4.16208L10.3709 7.68818Z" fill="#D9D9D9" stroke="#999999"/>
</svg>
