<svg width="28" height="28" viewBox="0 0 28 28" fill="none" xmlns="http://www.w3.org/2000/svg">
<g clip-path="url(#clip0_21_465)">
<path d="M11.8098 16.8465L12.9665 19.1926C13.1852 19.6383 13.8223 19.6383 14.0411 19.1926L15.2004 16.8465C15.4629 16.3161 15.9688 15.9469 16.554 15.8621L19.1434 15.4848C19.6356 15.4137 19.8325 14.8094 19.4743 14.4621L17.6012 12.6356C17.3907 12.4305 17.2375 12.1817 17.15 11.911L16.9504 12.0149C16.6532 12.1711 16.3224 12.2528 15.9866 12.2528C15.6508 12.2528 15.32 12.1711 15.0227 12.0149L12.354 10.6121C11.8481 10.3469 11.2547 10.7762 11.3532 11.3395L11.8618 14.3118C11.9766 14.9844 11.7551 15.6707 11.2657 16.1465L11.2356 16.1766C11.4762 16.3489 11.6758 16.5758 11.8098 16.8465Z" fill="#FDA289"/>
<path d="M13.1386 20.6664C12.6546 20.6664 12.2226 20.3984 12.0093 19.9636L10.675 17.2593C10.4562 16.8164 10.0324 16.5101 9.54292 16.4363L6.55972 16.0015C6.0812 15.9332 5.69292 15.605 5.54253 15.1429C5.39214 14.6835 5.51519 14.1886 5.85972 13.8496L8.01988 11.7441C8.37534 11.3996 8.53667 10.9019 8.45191 10.4152L7.94331 7.44292C7.86128 6.96714 8.05269 6.49409 8.4437 6.20972C8.83472 5.92534 9.34331 5.88979 9.76988 6.11401L12.4386 7.51675C12.8761 7.74644 13.3984 7.74644 13.8359 7.51675L16.5046 6.11401C16.9339 5.88979 17.4425 5.92534 17.8335 6.20972C18.2246 6.49409 18.416 6.96714 18.3339 7.44292L17.8253 10.4152C17.7406 10.9019 17.9019 11.3996 18.2574 11.7441L20.4175 13.8496C20.7648 14.1859 20.8851 14.6808 20.7347 15.1429C20.5843 15.6023 20.196 15.9304 19.7175 16.0015L16.7343 16.439C16.2449 16.5101 15.821 16.8191 15.6023 17.2621L14.2679 19.9664C14.0546 20.3984 13.6226 20.6664 13.1386 20.6664ZM9.18472 7.1148C9.16011 7.1148 9.13823 7.123 9.11363 7.1394C9.07261 7.16948 9.0562 7.20776 9.06441 7.25698L9.573 10.2292C9.72066 11.0878 9.43628 11.9601 8.81284 12.5671L6.65542 14.6699C6.61988 14.7054 6.60894 14.7464 6.62534 14.7929C6.64175 14.8394 6.67456 14.8667 6.72378 14.875L9.70698 15.3097C10.5683 15.4355 11.3121 15.9769 11.6949 16.7535L13.0293 19.4578C13.073 19.548 13.2015 19.548 13.2453 19.4578L14.5796 16.7535C14.9625 15.9742 15.7062 15.4355 16.5675 15.3097L19.5507 14.875C19.6 14.8667 19.6328 14.8394 19.6492 14.7929C19.6656 14.7464 19.6546 14.7027 19.6191 14.6699L17.4589 12.5644C16.8355 11.9574 16.5539 11.0851 16.6988 10.2265L17.2074 7.25425C17.2156 7.20503 17.1992 7.16401 17.1582 7.13667C17.1171 7.10659 17.0734 7.10386 17.0296 7.12847L14.3609 8.5312C13.5925 8.93589 12.671 8.93589 11.9027 8.5312L9.24214 7.12847C9.223 7.12026 9.20386 7.1148 9.18472 7.1148ZM13.1386 5.6519C12.8242 5.6519 12.5699 5.39761 12.5699 5.08315V2.32144C12.5699 2.00698 12.8242 1.75269 13.1386 1.75269C13.4531 1.75269 13.7074 2.00698 13.7074 2.32144V5.08315C13.7101 5.39761 13.4531 5.6519 13.1386 5.6519ZM20.4203 11.0332C20.1769 11.0332 19.95 10.8746 19.8761 10.6312C19.7832 10.3304 19.9527 10.0105 20.2535 9.92026L24.4835 8.62417C24.7843 8.5312 25.1015 8.70073 25.1945 9.00151C25.2875 9.3023 25.1179 9.62222 24.8171 9.71245L20.5871 11.0085C20.5296 11.025 20.475 11.0332 20.4203 11.0332ZM20.8523 23.4937C20.6882 23.4937 20.5269 23.4253 20.4148 23.2886L16.9613 19.1433C16.7589 18.9 16.7918 18.5417 17.0351 18.3394C17.2785 18.1398 17.6367 18.1699 17.839 18.4132L21.2898 22.5585C21.4921 22.8019 21.4593 23.1601 21.216 23.3625C21.1093 23.45 20.9808 23.4937 20.8523 23.4937Z" fill="#111111"/>
<path d="M3.34963 26.25C3.22111 26.25 3.08986 26.2062 2.98322 26.116C2.7426 25.9137 2.71252 25.5527 2.91486 25.3121L10.511 16.3352C10.7133 16.0945 11.0742 16.0644 11.3149 16.2668C11.5555 16.4691 11.5856 16.8301 11.3832 17.0707L3.7844 26.0477C3.67229 26.1816 3.51096 26.25 3.34963 26.25Z" fill="#111111"/>
</g>
<defs>
<clipPath id="clip0_21_465">
<rect width="28" height="28" rx="14" fill="white"/>
</clipPath>
</defs>
</svg>
