<svg width="28" height="28" viewBox="0 0 28 28" fill="none" xmlns="http://www.w3.org/2000/svg">
<path d="M7.74922 21.8117V20.0398C7.48672 19.8992 7.19141 19.8125 6.875 19.8125C5.84375 19.8125 5 20.6562 5 21.6875V23.4594C5.2625 23.6 5.55781 23.6867 5.87422 23.6867C6.90547 23.6867 7.74922 22.843 7.74922 21.8117ZM24.0008 21.8117V20.0398C23.7383 19.8992 23.443 19.8125 23.1266 19.8125C22.0953 19.8125 21.2516 20.6562 21.2516 21.6875V23.4594C21.5141 23.6 21.8094 23.6867 22.1258 23.6867C23.157 23.6867 24.0008 22.843 24.0008 21.8117Z" fill="#FDA289"/>
<path d="M24.0008 20.8532C23.7242 20.8532 23.5016 20.6305 23.5016 20.354V14.3118C23.4992 9.07349 19.2383 4.81255 14 4.81255C8.76172 4.81255 4.50078 9.07349 4.50078 14.3118V20.354C4.50078 20.6305 4.27813 20.8532 4.00156 20.8532C3.725 20.8532 3.5 20.6305 3.5 20.354V14.3118C3.5 8.52271 8.21094 3.81177 14 3.81177C19.7891 3.81177 24.5 8.52271 24.5 14.3118V20.354C24.5 20.6305 24.2773 20.8532 24.0008 20.8532Z" fill="#111111"/>
<path d="M5.87422 24.1882C4.56641 24.1882 3.5 23.1218 3.5 21.8117V18.6875C3.5 17.3773 4.56641 16.3132 5.87422 16.3132C7.18203 16.3132 8.25078 17.3773 8.25078 18.6875V21.8117C8.25078 23.1218 7.18438 24.1882 5.87422 24.1882ZM5.87422 17.3117C5.11484 17.3117 4.49844 17.9281 4.49844 18.6875V21.8117C4.49844 22.571 5.11484 23.1875 5.87422 23.1875C6.63359 23.1875 7.25 22.571 7.25 21.8117V18.6875C7.25 17.9281 6.63359 17.3117 5.87422 17.3117ZM22.1258 24.1882C20.8156 24.1882 19.7516 23.1218 19.7516 21.814V18.6875C19.7516 17.3773 20.818 16.3132 22.1258 16.3132C23.4336 16.3132 24.5 17.3773 24.5 18.6875V21.8117C24.5 23.1218 23.4336 24.1882 22.1258 24.1882ZM22.1258 17.3117C21.3664 17.3117 20.75 17.9281 20.75 18.6875V21.8117C20.75 22.571 21.3664 23.1875 22.1258 23.1875C22.8852 23.1875 23.5016 22.571 23.5016 21.8117V18.6875C23.4992 17.9281 22.8828 17.3117 22.1258 17.3117Z" fill="#111111"/>
</svg>
