<svg width="14" height="14" viewBox="0 0 14 14" fill="none" xmlns="http://www.w3.org/2000/svg">
<g clip-path="url(#clip0_21_437)">
<path d="M2.6687 2.6687C0.262451 5.07495 0.262451 8.9687 2.6687 11.3312C5.07495 13.7375 8.9687 13.7375 11.3312 11.3312C13.7375 8.92495 13.7375 5.0312 11.3312 2.6687C8.9687 0.262451 5.0312 0.262451 2.6687 2.6687ZM5.9062 2.97495L9.62495 6.6937C9.79995 6.8687 9.79995 7.1312 9.62495 7.3062L5.9062 11.025C5.7312 11.2 5.4687 11.2 5.2937 11.025C5.1187 10.85 5.1187 10.5875 5.2937 10.4125L8.7062 6.99995L5.2937 3.58745C5.1187 3.41245 5.1187 3.14995 5.2937 2.97495C5.42495 2.79995 5.7312 2.79995 5.9062 2.97495Z" fill="white"/>
</g>
<defs>
<clipPath id="clip0_21_437">
<rect width="14" height="14" fill="white"/>
</clipPath>
</defs>
</svg>
